<svg width="841" height="48" viewBox="0 0 841 48" fill="none" xmlns="http://www.w3.org/2000/svg">
<path d="M0 0H841L781 48H60L0 0Z" fill="#192F55"/>
<path d="M378.374 17.15C375.91 15.68 373.628 15.064 370.884 15.064C366.712 15.064 363.072 17.192 363.072 21.28C363.072 24.822 365.592 26.348 369.05 26.894L370.296 27.09C373.026 27.524 374.454 28.028 374.454 29.386C374.454 30.898 372.774 31.752 370.604 31.752C368.084 31.752 365.774 30.772 364.36 29.638L362.33 32.788C364.43 34.482 367.622 35.35 370.59 35.35C374.804 35.35 378.612 33.292 378.612 28.966C378.612 25.55 375.868 24.052 372.368 23.478L371.262 23.296C368.91 22.904 367.216 22.47 367.216 21.028C367.216 19.544 368.77 18.676 370.968 18.676C373.11 18.676 374.986 19.39 376.526 20.342L378.374 17.15ZM391.418 15.036C385.384 15.036 381.128 19.306 381.128 25.2C381.128 31.094 385.384 35.364 391.418 35.364C395.002 35.364 397.956 33.768 399.692 31.22L396.5 28.924C395.324 30.632 393.56 31.612 391.39 31.612C387.932 31.612 385.216 29.134 385.202 25.2C385.202 21.392 387.834 18.788 391.39 18.788C393.574 18.788 395.352 19.796 396.458 21.49L399.818 19.432C398.222 16.688 395.03 15.036 391.418 15.036ZM403.203 15.4V35H407.109V27.202H408.257L413.969 35H418.701L412.667 27.146C416.433 26.782 418.673 24.584 418.673 21.364C418.673 17.612 416.167 15.4 411.491 15.4H403.203ZM411.421 18.998C413.493 18.998 414.655 19.74 414.655 21.364C414.655 23.016 413.549 23.8 411.421 23.8H407.109V18.998H411.421ZM436.878 31.416H426.14V26.908H436.276V23.324H426.14V18.984H436.766V15.4H422.234V35H436.878V31.416ZM455.526 31.416H444.788V26.908H454.924V23.324H444.788V18.984H455.414V15.4H440.882V35H455.526V31.416ZM477.059 15.4H473.139V28.49L463.185 15.4H459.531V35H463.437L463.451 21.91L473.391 35H477.059V15.4Z" fill="white"/>
</svg>
